<svg width="800" height="1000" viewBox="0 0 800 1000" fill="none" xmlns="http://www.w3.org/2000/svg">
  <rect width="800" height="1000" rx="48" fill="url(#bg)"/>
  <circle cx="192" cy="174" r="116" fill="#FFF7B2" fill-opacity="0.7"/>
  <circle cx="648" cy="265" r="156" fill="#FF82A7" fill-opacity="0.45"/>
  <circle cx="617" cy="792" r="178" fill="#6AE8E2" fill-opacity="0.38"/>
  <path d="M131 354C241 269 362 237 494 258C568 270 638 307 701 370" stroke="#FFFFFF" stroke-width="18" stroke-linecap="round"/>
  <path d="M134 418C246 334 367 302 498 323C572 335 641 372 704 435" stroke="#FFFFFF" stroke-width="10" stroke-linecap="round" opacity="0.88"/>
  <rect x="90" y="90" width="204" height="42" rx="21" fill="white" fill-opacity="0.78"/>
  <text x="114" y="118" fill="#8C3D72" font-family="Trebuchet MS, Segoe UI, sans-serif" font-size="24" font-weight="700">GIFT READY</text>
  <rect x="86" y="640" width="626" height="234" rx="34" fill="white" fill-opacity="0.2"/>
  <circle cx="214" cy="757" r="78" fill="#FFD84F"/>
  <circle cx="396" cy="757" r="78" fill="#FF5CA8"/>
  <circle cx="578" cy="757" r="78" fill="#2EA8FF"/>
  <text x="87" y="568" fill="#7B2E58" font-family="Georgia, serif" font-size="76" font-weight="700">Candy Orbit</text>
  <text x="89" y="928" fill="#4B4470" font-family="Trebuchet MS, Segoe UI, sans-serif" font-size="28">Soft, playful colors for joyful keepsakes and party pieces.</text>
  <defs>
    <linearGradient id="bg" x1="82" y1="62" x2="735" y2="919" gradientUnits="userSpaceOnUse">
      <stop stop-color="#FFFBDD"/>
      <stop offset="0.48" stop-color="#FFC7E4"/>
      <stop offset="1" stop-color="#BDEEFF"/>
    </linearGradient>
  </defs>
</svg>
