<svg width="800" height="1000" viewBox="0 0 800 1000" fill="none" xmlns="http://www.w3.org/2000/svg">
  <rect width="800" height="1000" rx="48" fill="url(#bg)"/>
  <circle cx="660" cy="180" r="170" fill="url(#sun)"/>
  <circle cx="188" cy="820" r="210" fill="#FF7FA6" fill-opacity="0.55"/>
  <path d="M89 664C212 540 343 471 483 458C574 450 654 474 723 530V917H89V664Z" fill="#7A3DFF" fill-opacity="0.28"/>
  <path d="M67 724C213 603 361 538 510 530C603 525 688 552 756 610V917H67V724Z" fill="#FF8A3D" fill-opacity="0.4"/>
  <path d="M140 355C230 273 334 234 451 239C531 243 604 273 667 331" stroke="#FFF5D6" stroke-width="20" stroke-linecap="round"/>
  <path d="M161 406C251 324 355 285 472 290C552 294 625 324 688 382" stroke="#FFF5D6" stroke-width="12" stroke-linecap="round" opacity="0.78"/>
  <rect x="108" y="88" width="230" height="44" rx="22" fill="white" fill-opacity="0.72"/>
  <text x="134" y="118" fill="#7B315B" font-family="Trebuchet MS, Segoe UI, sans-serif" font-size="24" font-weight="700">CUSTOM PRINT</text>
  <text x="107" y="770" fill="white" font-family="Georgia, serif" font-size="78" font-weight="700">Sunset</text>
  <text x="107" y="842" fill="white" font-family="Georgia, serif" font-size="78" font-weight="700">Bloom</text>
  <text x="108" y="895" fill="white" fill-opacity="0.85" font-family="Trebuchet MS, Segoe UI, sans-serif" font-size="28">Warm, celebratory, and made for milestone gifts.</text>
  <defs>
    <linearGradient id="bg" x1="96" y1="64" x2="699" y2="909" gradientUnits="userSpaceOnUse">
      <stop stop-color="#FFF3CC"/>
      <stop offset="0.45" stop-color="#FFB06B"/>
      <stop offset="1" stop-color="#FF5CA8"/>
    </linearGradient>
    <radialGradient id="sun" cx="0" cy="0" r="1" gradientUnits="userSpaceOnUse" gradientTransform="translate(660 180) rotate(90) scale(170)">
      <stop stop-color="#FFF5C9"/>
      <stop offset="1" stop-color="#FFF5C9" stop-opacity="0"/>
    </radialGradient>
  </defs>
</svg>
